<svg width="512" height="512" viewBox="0 0 512 512" fill="none" xmlns="http://www.w3.org/2000/svg">
<g clip-path="url(#clip0_2115_123)">
<path d="M59.786 313.591V265.355H116.969C133.826 265.355 146.403 261.854 154.702 254.852C163.001 247.85 167.15 236.05 167.15 219.453C167.15 204.93 163.26 193.909 155.48 186.388C147.959 178.867 135.9 175.107 119.303 175.107H59.786V127.26H121.248C137.845 127.26 152.757 129.205 165.983 133.095C179.468 136.985 191.009 142.82 200.604 150.6C210.199 158.121 217.461 167.846 222.388 179.775C227.575 191.445 230.168 205.19 230.168 221.009C230.168 241.237 225.5 258.223 216.164 271.968C207.087 285.713 193.472 296.086 175.319 303.088C157.425 310.09 134.993 313.591 108.022 313.591H59.786ZM13.884 384V127.26H76.513V384H13.884ZM370.323 389.446C349.317 389.446 330.386 384.648 313.529 375.053C296.673 365.458 283.317 351.065 273.462 331.874C263.867 312.424 259.069 288.047 259.069 258.742C259.069 237.217 261.792 218.027 267.238 201.17C272.944 184.313 281.372 170.05 292.523 158.38C303.675 146.451 317.29 137.374 333.368 131.15C349.706 124.926 368.508 121.814 389.773 121.814C405.852 121.814 420.375 123.629 433.341 127.26C446.567 130.891 457.978 136.077 467.573 142.82C477.169 149.563 484.56 157.602 489.746 166.938C495.192 176.274 498.045 186.777 498.304 198.447L439.176 216.73C438.917 207.135 436.453 199.095 431.785 192.612C427.117 186.129 420.893 181.201 413.113 177.83C405.333 174.199 396.646 172.384 387.05 172.384C373.565 172.384 362.154 175.496 352.818 181.72C343.742 187.685 336.74 196.891 331.812 209.339C327.144 221.787 324.81 237.347 324.81 256.019C324.81 270.023 326.107 282.341 328.7 292.974C331.553 303.347 335.702 312.035 341.148 319.037C346.594 326.039 353.207 331.355 360.987 334.986C369.027 338.357 378.492 340.043 389.384 340.043C400.276 340.043 409.612 338.357 417.392 334.986C425.432 331.615 431.785 326.428 436.453 319.426C441.121 312.424 443.585 303.477 443.844 292.585H398.331V248.239H506.084V298.031V384H463.294L462.516 319.815H454.736C450.328 334.856 444.622 347.564 437.62 357.937C430.618 368.31 421.671 376.22 410.779 381.666C399.887 386.853 386.402 389.446 370.323 389.446Z" fill="black"/>
</g>
<defs>
<clipPath id="clip0_2115_123">
<rect width="512" height="512" fill="white"/>
</clipPath>
</defs>
</svg>
